# xmcd
#
# Track frame offsets: 
#        150
#        450
#        8701
#        17909
#        32286
#        44246
#        57861
#        67349
#        76361
#        89219
#        101149
#        112341
#
# Disc length: 1647 seconds
#
# Revision: 0
# Processed by: cddbd v1.5.2PL0 Copyright (c) Steve Scherf et al.
# Submitted via: ExactAudioCopy v1.3
#
DISCID=a3066d0c
DTITLE=Magic Sam - Magic Blues Genius
DYEAR=1996
DGENRE=Chicago Blues
TTITLE0=Texas Special
TTITLE1=E Street Blues
TTITLE2=Magic Blues
TTITLE3=Southshore Boogie
TTITLE4=Gangster Blues
TTITLE5=Switchboard Blues
TTITLE6=Sam's C Shuffle
TTITLE7=Barbecue Blues
TTITLE8=Funky G Street
TTITLE9=Goin' To Church
TTITLE10=Sam's A Shuffle
TTITLE11=S G Blues
EXTD=
EXTT0=
EXTT1=
EXTT2=
EXTT3=
EXTT4=
EXTT5=
EXTT6=
EXTT7=
EXTT8=
EXTT9=
EXTT10=
EXTT11=
PLAYORDER=
